<svg width="27" height="25" viewBox="0 0 27 25" fill="none" xmlns="http://www.w3.org/2000/svg">
<path d="M6.75 13.5C6.75 12.5335 7.5335 11.75 8.5 11.75C9.4665 11.75 10.25 12.5335 10.25 13.5V16.5C10.25 17.4665 9.4665 18.25 8.5 18.25C7.5335 18.25 6.75 17.4665 6.75 16.5V13.5Z" stroke="#ffffff" stroke-opacity="1" stroke-width="1.5"/>
<path d="M13.75 8.5C13.75 7.5335 14.5335 6.75 15.5 6.75C16.4665 6.75 17.25 7.5335 17.25 8.5V16.5C17.25 17.4665 16.4665 18.25 15.5 18.25C14.5335 18.25 13.75 17.4665 13.75 16.5V8.5Z" stroke="#ffffff" stroke-opacity="1" stroke-width="1.5"/>
<path d="M2.75 13.5C2.75 11.3384 2.75054 9.76077 2.84816 8.52215C2.94523 7.29046 3.13458 6.46281 3.47412 5.78651C3.9465 4.84559 4.61934 4.07742 5.41485 3.54924C5.97084 3.18009 6.6521 2.97052 7.69794 2.86151C8.75873 2.75095 10.1149 2.75 12 2.75C13.8851 2.75 15.2413 2.75095 16.3021 2.86151C17.3479 2.97052 18.0292 3.18009 18.5851 3.54924C19.3807 4.07742 20.0535 4.84559 20.5259 5.78651C20.8654 6.46281 21.0548 7.29046 21.1518 8.52215C21.2495 9.76077 21.25 11.3384 21.25 13.5C21.25 15.6616 21.2495 17.2392 21.1518 18.4779C21.0548 19.7095 20.8654 20.5372 20.5259 21.2135C20.0535 22.1544 19.3807 22.9226 18.5851 23.4508C18.0292 23.8199 17.3479 24.0295 16.3021 24.1385C15.2413 24.2491 13.8851 24.25 12 24.25C10.1149 24.25 8.75873 24.2491 7.69794 24.1385C6.6521 24.0295 5.97084 23.8199 5.41485 23.4508C4.61934 22.9226 3.9465 22.1544 3.47412 21.2135C3.13458 20.5372 2.94523 19.7095 2.84816 18.4779C2.75054 17.2392 2.75 15.6616 2.75 13.5Z" stroke="#ffffff" stroke-opacity="1" stroke-width="1.5"/>
</svg>
