<svg width="25" height="23" viewBox="0 0 25 23" fill="none" xmlns="http://www.w3.org/2000/svg">
<path fill-rule="evenodd" clip-rule="evenodd" d="M15.1588 7.15222C15.1588 7.89814 14.8452 8.61351 14.287 9.14096C13.7288 9.66841 12.9718 9.96472 12.1823 9.96472C11.3929 9.96472 10.6359 9.66841 10.0777 9.14096C9.51947 8.61351 9.20588 7.89814 9.20588 7.15222C9.20588 6.4063 9.51947 5.69093 10.0777 5.16348C10.6359 4.63604 11.3929 4.33972 12.1823 4.33972C12.9718 4.33972 13.7288 4.63604 14.287 5.16348C14.8452 5.69093 15.1588 6.4063 15.1588 7.15222ZM13.8359 7.15222C13.8359 7.56662 13.6617 7.96405 13.3516 8.25708C13.0415 8.5501 12.6209 8.71472 12.1823 8.71472C11.7438 8.71472 11.3232 8.5501 11.0131 8.25708C10.703 7.96405 10.5288 7.56662 10.5288 7.15222C10.5288 6.73782 10.703 6.34039 11.0131 6.04737C11.3232 5.75434 11.7438 5.58972 12.1823 5.58972C12.6209 5.58972 13.0415 5.75434 13.3516 6.04737C13.6617 6.34039 13.8359 6.73782 13.8359 7.15222Z" fill="#ffffff" fill-opacity="1"/>
<path fill-rule="evenodd" clip-rule="evenodd" d="M2.26341 0.00218386C2.43822 -0.0116558 2.61169 0.0406882 2.74566 0.147701C2.87962 0.254714 2.96311 0.407629 2.97776 0.572809L3.1676 2.67843C9.79982 1.56843 14.4133 1.55843 21.197 2.68281L21.3862 0.572809C21.3935 0.491018 21.4179 0.411392 21.4578 0.33848C21.4977 0.265568 21.5524 0.200798 21.6188 0.147867C21.6852 0.0949366 21.762 0.0548832 21.8447 0.0299939C21.9275 0.00510459 22.0147 -0.00413301 22.1012 0.00280881L23.4195 0.109059C23.5942 0.123057 23.7558 0.202016 23.8689 0.328585C23.982 0.455154 24.0374 0.618979 24.0227 0.784059L23.8051 3.20218C23.9002 3.26488 23.9763 3.35013 24.0256 3.44936C24.0748 3.5486 24.0956 3.65833 24.0858 3.76756C24.0761 3.87679 24.036 3.98166 23.9698 4.07166C23.9036 4.16166 23.8135 4.23361 23.7085 4.28031L23.477 6.85656C23.4697 6.93841 23.4453 7.01809 23.4054 7.09104C23.3655 7.164 23.3107 7.2288 23.2442 7.28174C23.1777 7.33468 23.1009 7.37471 23.018 7.39956C22.9352 7.42441 22.8479 7.43359 22.7613 7.42656L21.4438 7.32031C21.2691 7.30631 21.1074 7.22735 20.9943 7.10078C20.8812 6.97421 20.8259 6.81039 20.8405 6.64531L21.0839 3.93281C20.7285 3.87347 20.3726 3.81638 20.0164 3.76156C20.0802 3.94834 20.1125 4.14342 20.1123 4.33968L20.1149 4.55843V4.56343C20.1235 5.28281 20.1467 7.18093 19.9105 8.99093C19.7783 10.0034 19.5474 11.1528 19.097 12.0997C18.7603 12.8059 18.0691 13.8509 16.8124 14.2122V14.8922C17.3051 14.7272 17.7992 14.5703 18.208 14.4734C18.4666 14.4109 18.9389 14.3084 19.429 14.3497C19.8779 14.3835 20.3058 14.5437 20.6573 14.8097C20.9038 14.9994 21.1022 15.2387 21.2381 15.5103C21.3739 15.7819 21.4438 16.0787 21.4424 16.3791C21.4424 16.9559 21.246 18.3266 21.0892 19.3022C21.0052 19.8259 20.9173 20.3259 20.8485 20.6653L20.8425 20.6928C20.7942 20.9303 20.7215 21.2847 20.5184 21.6072V21.6078L20.5171 21.6097C20.4708 21.6828 20.2624 22.0159 19.8318 22.2609C19.5678 22.4112 19.2705 22.5014 18.9632 22.5244C18.656 22.5474 18.3473 22.5027 18.0615 22.3936C17.7758 22.2846 17.5207 22.1142 17.3166 21.8961C17.1124 21.6779 16.9647 21.4179 16.8851 21.1366C16.7661 20.7222 16.731 20.2897 16.7132 19.9028C16.707 19.7778 16.702 19.6528 16.6979 19.5278C16.69 19.3122 16.6834 19.1153 16.6662 18.9209C16.107 19.1068 15.5421 19.2768 14.9723 19.4309C14.1124 19.6591 13.1183 19.8659 12.1823 19.8659C11.2464 19.8659 10.2529 19.6597 9.39238 19.4309C8.83169 19.2793 8.27584 19.1122 7.72556 18.9297L7.71233 19.0928C7.67452 19.5651 7.63351 20.0372 7.5893 20.5091C7.56946 20.7384 7.53705 21.0966 7.38095 21.4228C7.24883 21.6994 7.04763 21.9416 6.79462 22.1286C6.54161 22.3155 6.24436 22.4416 5.92839 22.4961C5.61243 22.5505 5.2872 22.5317 4.98063 22.4412C4.67406 22.3507 4.39532 22.1913 4.16835 21.9766C3.68881 21.5234 3.62465 20.9591 3.58364 20.6028L3.57041 20.4941C3.55718 20.3891 3.53535 20.2516 3.50559 20.0816C3.45466 19.7834 3.38785 19.4316 3.31576 19.0491L3.28401 18.8822C3.19989 18.4464 3.1214 18.0097 3.04854 17.5722C2.98835 17.1991 2.9222 16.7422 2.9222 16.3791C2.9222 15.8547 3.13982 15.2459 3.70733 14.8103C4.09206 14.518 4.56779 14.3533 5.06129 14.3416C5.41053 14.3291 5.74257 14.3828 5.98267 14.4334C6.04815 14.4472 6.10636 14.4609 6.15663 14.4728C6.5654 14.5703 7.05883 14.7272 7.55226 14.8916V14.2022C7.46949 14.1764 7.38805 14.147 7.30819 14.1141C6.50984 13.7834 5.99127 13.1516 5.67047 12.6184C5.53877 12.3996 5.4234 12.1724 5.3252 11.9384C4.9548 11.0722 4.73189 10.0472 4.58704 9.11843C4.27153 7.09593 4.24508 4.95531 4.24508 4.33968C4.24508 4.13593 4.27947 3.93968 4.34297 3.75656C3.99439 3.81031 3.64052 3.86781 3.28004 3.92906L3.52411 6.64531C3.53876 6.81039 3.48346 6.97421 3.37034 7.10078C3.25723 7.22735 3.09557 7.30631 2.92088 7.32031L1.60264 7.42656C1.42793 7.4404 1.25456 7.38814 1.12061 7.28126C0.986661 7.17438 0.903099 7.02163 0.888284 6.85656L0.656781 4.28031C0.551471 4.23396 0.460972 4.16217 0.394425 4.07219C0.327877 3.98221 0.287639 3.87723 0.277775 3.76785C0.26791 3.65847 0.288769 3.54857 0.338244 3.44925C0.38772 3.34993 0.464059 3.2647 0.55955 3.20218L0.341937 0.783434C0.327285 0.618354 0.382591 0.45453 0.495703 0.32796C0.608814 0.201391 0.770477 0.122432 0.945168 0.108434L2.26341 0.00218386ZM7.88364 3.30343C8.09941 3.61053 8.21425 3.97107 8.2137 4.33968C8.2137 4.90531 8.24082 6.82718 8.51333 8.57156C8.65025 9.45031 8.83016 10.1503 9.02925 10.5897H15.463L15.4697 10.5753L15.4776 10.5603C15.6807 10.1334 15.8546 9.43156 15.9717 8.53218C16.1714 7.00093 16.1549 5.37406 16.1463 4.61968V4.61593L16.1443 4.33968C16.1443 3.95906 16.2634 3.60531 16.4698 3.30968C13.4933 3.02218 10.8165 3.02093 7.88364 3.30343ZM15.4895 14.2034V13.7022C15.4895 13.5472 15.5504 13.3978 15.6604 13.2829C15.7704 13.168 15.9216 13.0958 16.0848 13.0803C16.9857 12.9941 17.5538 12.2928 17.8905 11.5866C18.2589 10.8128 18.4706 9.81218 18.5983 8.83781C18.8225 7.11656 18.8007 5.29031 18.7921 4.57218V4.56906L18.7894 4.33968C18.7894 4.17392 18.7197 4.01495 18.5957 3.89774C18.4716 3.78053 18.3034 3.71468 18.128 3.71468C17.9525 3.71468 17.7843 3.78053 17.6603 3.89774C17.5362 4.01495 17.4665 4.17392 17.4665 4.33968L17.4692 4.60656V4.61343C17.4771 5.36781 17.4956 7.06593 17.2846 8.68531C17.1629 9.62156 16.9698 10.4728 16.6841 11.0728C16.5478 11.3591 16.4149 11.5491 16.2786 11.6697C16.156 11.7788 15.9939 11.8396 15.8255 11.8397H8.63569C8.53228 11.8397 8.4303 11.8168 8.33795 11.7729C8.24559 11.7289 8.16543 11.6651 8.1039 11.5866C7.99302 11.438 7.89986 11.2782 7.8261 11.1103C7.55226 10.5178 7.34854 9.67906 7.20435 8.75406C6.91728 6.91656 6.89082 4.92218 6.89082 4.33968C6.89082 4.17392 6.82114 4.01495 6.69709 3.89774C6.57305 3.78053 6.40481 3.71468 6.22939 3.71468C6.05396 3.71468 5.88572 3.78053 5.76168 3.89774C5.63764 4.01495 5.56795 4.17392 5.56795 4.33968C5.56795 4.83656 5.58647 6.34406 5.7644 7.94531C5.80078 8.27406 5.84377 8.60781 5.89536 8.93656C6.04485 9.89468 6.26907 10.8653 6.61501 11.6116C6.91662 12.2628 7.43651 12.9916 8.28579 13.0803C8.44776 13.0971 8.59747 13.1698 8.70623 13.2844C8.81498 13.3991 8.87513 13.5476 8.87513 13.7016V14.2034C9.03586 14.2491 9.24025 14.3028 9.48101 14.3566C10.1464 14.5041 11.0863 14.6522 12.1823 14.6522C13.0915 14.6514 13.9976 14.5522 14.883 14.3566C15.1244 14.3028 15.3288 14.2491 15.4895 14.2034ZM8.87513 15.5016C9.95526 15.7662 11.0665 15.9006 12.1823 15.9016C13.2982 15.9005 14.4094 15.7661 15.4895 15.5016V15.7791C15.4895 15.8792 15.5149 15.9779 15.5637 16.0668C15.6125 16.1557 15.6832 16.2322 15.7698 16.2899C15.8564 16.3476 15.9564 16.3848 16.0614 16.3984C16.1664 16.4119 16.2734 16.4015 16.3732 16.3678L16.737 16.2447C17.413 16.0153 18.0539 15.7991 18.5315 15.6847C18.7735 15.6272 19.0599 15.5734 19.3119 15.5947C19.4403 15.6053 19.6427 15.6409 19.8226 15.7797C20.0329 15.9409 20.1196 16.1678 20.1196 16.3797C20.1196 16.8403 19.9436 18.1041 19.7816 19.1147C19.7127 19.5535 19.6353 19.9911 19.5494 20.4272C19.4932 20.7009 19.4555 20.8516 19.3814 20.9691L19.3781 20.9741C19.3112 21.0807 19.2125 21.1663 19.0942 21.22C18.976 21.2737 18.8436 21.2932 18.7137 21.276C18.5838 21.2587 18.4622 21.2055 18.3642 21.1231C18.2662 21.0407 18.1962 20.9327 18.163 20.8128V20.8116C18.0837 20.5353 18.0519 20.2159 18.034 19.8459C18.0293 19.742 18.0251 19.638 18.0215 19.5341C18.015 19.2551 17.9989 18.9764 17.9732 18.6984L17.8971 18.0009C17.8867 17.9068 17.8537 17.8162 17.8007 17.7359C17.7478 17.6556 17.6762 17.5877 17.5914 17.5373C17.5067 17.4869 17.4109 17.4554 17.3113 17.4451C17.2118 17.4348 17.1111 17.446 17.0168 17.4778C16.2786 17.7278 15.4386 18.0091 14.6144 18.2278C13.7903 18.4466 12.9357 18.6159 12.1823 18.6159C11.4289 18.6159 10.5744 18.4466 9.75022 18.2278C8.97633 18.0216 8.1879 17.7609 7.48347 17.5234L7.35317 17.4797C7.25727 17.4473 7.15474 17.4362 7.05358 17.4474C6.95242 17.4586 6.85536 17.4917 6.76996 17.5441C6.68456 17.5966 6.61313 17.6669 6.56125 17.7498C6.50936 17.8326 6.47841 17.9256 6.47081 18.0216C6.44634 18.3278 6.41988 18.6666 6.39276 18.9966C6.35109 19.5047 6.31008 19.9966 6.27833 20.3241L6.27569 20.3522C6.24791 20.6428 6.23402 20.7872 6.17581 20.9078L6.17184 20.9166C6.12658 21.0074 6.05884 21.0866 5.97433 21.1476C5.88983 21.2085 5.79106 21.2492 5.68635 21.2665C5.58165 21.2837 5.4741 21.2768 5.37279 21.2465C5.27147 21.2162 5.17938 21.1632 5.10428 21.0922C4.96538 20.9609 4.94884 20.8372 4.88799 20.3759L4.88336 20.3397C4.86256 20.1866 4.83874 20.0338 4.81193 19.8816C4.75901 19.5722 4.69022 19.2109 4.61879 18.8328L4.58572 18.6622C4.50372 18.2368 4.42721 17.8105 4.3562 17.3834C4.29468 17.0041 4.24508 16.6347 4.24508 16.3791C4.24508 16.1678 4.33106 15.9416 4.54206 15.7791C4.6684 15.6822 4.80664 15.6353 4.92106 15.6128C4.97001 15.6028 5.01433 15.5978 5.05203 15.5941C5.3047 15.5734 5.5911 15.6272 5.83252 15.6847C5.95158 15.7134 6.0799 15.7472 6.21616 15.7872C6.59979 15.8984 7.04891 16.0484 7.51787 16.2072L7.99145 16.3678C8.09128 16.4015 8.19819 16.4119 8.3032 16.3984C8.40821 16.3848 8.50823 16.3476 8.59485 16.2899C8.68147 16.2322 8.75214 16.1557 8.80092 16.0668C8.8497 15.9779 8.87515 15.8792 8.87513 15.7791V15.5016Z" fill="#ffffff" fill-opacity="1"/>
</svg>
